# xmcd
#
# Track frame offsets:
#	225
#	10680
#	20982
#	32411
#	45224
#	56814
#	70118
#	81759
#	94696
#	107585
#	120664
#	131374
#	142787
#	155906
#	168922
#	180844
#
# Disc length: 2578 seconds
#
# Revision: 0
# Processed by: cddbd v1.4PL0 Copyright (c) Steve Scherf et al.
# Submitted via: audiograbber 1.81.01
#
DISCID=bf0a0f10
DTITLE=Dean Martin - Dean Martin [CD2] 
DYEAR=1900
DGENRE=Country
TTITLE0=Cha Cha D'Amour
TTITLE1=Memories Are Made Of This
TTITLE2=Baby, Obey Me
TTITLE3=Little Ole Wine Drinker Me
TTITLE4=The Darktown Strutters Hall
TTITLE5=I'm In Love With You
TTITLE6=Don't Rock The Boat, Dear
TTITLE7=Wich Way Did My Heart Go
TTITLE8=All Of Me
TTITLE9=I Got The Sun In The Morning
TTITLE10=Have A Liittle Sympaty
TTITLE11=Oh Marie (Maria Marie)
TTITLE12=Walkin' My Baby Back Home
TTITLE13=Santa Lucia
TTITLE14=Hold Me
TTITLE15=Memory Lane
EXTD=
EXTT0=
EXTT1=
EXTT2=
EXTT3=
EXTT4=
EXTT5=
EXTT6=
EXTT7=
EXTT8=
EXTT9=
EXTT10=
EXTT11=
EXTT12=
EXTT13=
EXTT14=
EXTT15=
PLAYORDER=
